<svg width="25" height="20" viewBox="0 0 25 20" fill="none" xmlns="http://www.w3.org/2000/svg">
<path d="M9.3329 2.29384L5.47135 5.99991H1.04167C0.466146 5.99991 0 6.44739 0 6.99986V12.9996C0 13.5516 0.466146 13.9995 1.04167 13.9995H5.47135L9.3329 17.7056C9.98524 18.3318 11.1111 17.8919 11.1111 16.9986V3.00089C11.1111 2.10676 9.98438 1.66845 9.3329 2.29384ZM19.4596 0.165602C18.9748 -0.1398 18.3233 -0.0110563 18.0052 0.455172C17.6866 0.920566 17.822 1.54595 18.3069 1.85136C21.1832 3.66335 22.8997 6.70946 22.8997 10.0001C22.8997 13.2908 21.1832 16.3369 18.3069 18.1489C17.822 18.4539 17.6866 19.0797 18.0052 19.5447C18.3108 19.9909 18.957 20.1513 19.4596 19.8343C22.9284 17.6485 25 13.9716 25 9.99972C25 6.02783 22.9284 2.35133 19.4596 0.165602ZM20.8333 9.99972C20.8333 7.35276 19.4418 4.91913 17.1107 3.49003C16.625 3.19254 15.9809 3.33087 15.6732 3.80085C15.3654 4.27083 15.5091 4.89288 15.9948 5.19078C17.7201 6.24865 18.75 8.04607 18.75 9.99972C18.75 11.9534 17.7201 13.7508 15.9948 14.8087C15.5091 15.1062 15.3654 15.7282 15.6732 16.1986C15.9557 16.6302 16.5898 16.8294 17.1107 16.5094C19.4418 15.0803 20.8333 12.6471 20.8333 9.99972ZM14.6801 6.79696C14.1775 6.53322 13.5434 6.70696 13.2648 7.19069C12.9874 7.67442 13.171 8.2823 13.6749 8.54937C14.2352 8.84478 14.5833 9.401 14.5833 9.99972C14.5833 10.5989 14.2352 11.1547 13.6753 11.4501C13.1714 11.7171 12.9878 12.325 13.2652 12.8088C13.5443 13.2946 14.1788 13.4671 14.6806 13.2025C15.9058 12.5546 16.6671 11.3276 16.6671 9.99931C16.6671 8.67104 15.9058 7.44443 14.6801 6.79696Z" fill="#0A246B"/>
</svg>
