<svg width="18" height="18" viewBox="0 0 18 18" fill="none" xmlns="http://www.w3.org/2000/svg">
<path d="M12.4118 8.9375L17.529 3.85582C18.157 3.23223 18.157 2.22117 17.529 1.59707L16.3918 0.467695C15.7638 -0.155898 14.7457 -0.155898 14.1172 0.467695L9 5.54938L3.88278 0.467695C3.25483 -0.155898 2.2367 -0.155898 1.60824 0.467695L0.470966 1.59707C-0.156989 2.22066 -0.156989 3.23172 0.470966 3.85582L5.58818 8.9375L0.470966 14.0192C-0.156989 14.6428 -0.156989 15.6538 0.470966 16.2779L1.60824 17.4073C2.23619 18.0309 3.25483 18.0309 3.88278 17.4073L9 12.3256L14.1172 17.4073C14.7452 18.0309 15.7638 18.0309 16.3918 17.4073L17.529 16.2779C18.157 15.6543 18.157 14.6433 17.529 14.0192L12.4118 8.9375Z" fill="#0C215F" fill-opacity="0.5"/>
</svg>
