<svg width="39" height="39" viewBox="0 0 39 39" fill="none" xmlns="http://www.w3.org/2000/svg">
<circle cx="19.5" cy="19.5" r="19" stroke="#0A2469"/>
<path d="M29.3203 9.77545L27.6613 11.2121C25.8057 9.3035 23.2178 8.05334 20.2985 7.89529C14.2714 7.56771 9.08597 12.0494 8.75802 17.8692C8.73649 18.2487 8.73706 18.6244 8.75688 18.9952H8.75462L8.76141 19.0756C8.77104 19.2315 8.7835 19.3868 8.8005 19.541L8.80389 19.5405C8.84977 19.792 9.08766 19.9736 9.35671 19.9517L11.8483 19.7521C12.1338 19.7291 12.3456 19.4874 12.3224 19.2118L12.2794 18.713H12.2777C12.2697 18.5151 12.2692 18.316 12.2788 18.1153C12.4725 14.0526 16.0828 11.0524 20.1518 11.3001C22.0204 11.4139 23.7412 12.1872 25.032 13.4882L23.0926 15.1676C22.3903 15.7758 22.8004 16.9001 23.7423 16.9499L29.6482 17.26C30.2322 17.2906 30.7312 16.8586 30.7629 16.2947L31.0841 10.5925C31.1356 9.68248 30.0226 9.16732 29.3203 9.77545Z" fill="#012063"/>
<path d="M10.5122 29.3429L12.1644 27.8992C14.0285 29.7996 16.6226 31.0382 19.5424 31.1842C25.5707 31.485 30.7352 26.9804 31.0359 21.16C31.0558 20.7805 31.0535 20.4048 31.0314 20.034H31.0337L31.0263 19.9536C31.0161 19.7978 31.0025 19.6424 30.985 19.4888L30.9816 19.4893C30.9345 19.2378 30.6955 19.0578 30.4265 19.0803L27.9354 19.2903C27.65 19.3143 27.4393 19.5571 27.4642 19.8328L27.5095 20.3315H27.5112C27.5203 20.5295 27.5214 20.7285 27.5129 20.9292C27.3384 24.9925 23.7418 28.0085 19.6721 27.7789C17.803 27.6733 16.0788 26.9071 14.7818 25.6121L16.7132 23.9245C17.4127 23.3131 16.9976 22.1909 16.0556 22.1455L10.148 21.8611C9.56404 21.8332 9.06673 22.2674 9.03785 22.8313L8.74332 28.5352C8.69744 29.4435 9.81269 29.9543 10.5122 29.3429Z" fill="#012063"/>
</svg>
